<?xml version="1.0" encoding="utf-8"?>
<!-- Generator: Adobe Illustrator 15.1.0, SVG Export Plug-In . SVG Version: 6.00 Build 0)  -->
<!DOCTYPE svg PUBLIC "-//W3C//DTD SVG 1.1//EN" "http://www.w3.org/Graphics/SVG/1.1/DTD/svg11.dtd">
<svg version="1.1" id="Layer_1" xmlns="http://www.w3.org/2000/svg" xmlns:xlink="http://www.w3.org/1999/xlink" x="0px" y="0px"
	 width="35.938px" height="35.938px" viewBox="0 0 35.938 35.938" enable-background="new 0 0 35.938 35.938" xml:space="preserve">
<g>
	<g id="Group_11_14_">
		<path id="Path_16_14_" fill="#96999C" d="M17.986,8.76c-5.092,0-9.219,4.127-9.221,9.219c0,5.093,4.127,9.221,9.219,9.221
			c5.094,0.002,9.221-4.128,9.221-9.219v-0.002c0.008-5.082-4.105-9.211-9.189-9.219C18.006,8.76,17.996,8.76,17.986,8.76
			 M17.986,23.975c-3.309-0.001-5.992-2.687-5.99-5.998c0.002-3.311,2.688-5.992,5.998-5.99c3.309,0.001,5.988,2.684,5.99,5.992
			C23.979,21.289,21.297,23.969,17.986,23.975z M29.734,8.383c0,1.188-0.965,2.152-2.152,2.152s-2.15-0.964-2.15-2.152
			c0-1.188,0.963-2.15,2.15-2.15h0.004c1.186-0.002,2.148,0.958,2.15,2.141c0,0.004,0,0.008,0,0.01 M35.844,10.566
			c-0.137-2.881-0.791-5.434-2.906-7.535c-2.113-2.102-4.656-2.76-7.537-2.904c-2.969-0.168-11.871-0.168-14.836,0
			c-2.871,0.137-5.424,0.791-7.535,2.9c-2.109,2.107-2.76,4.65-2.902,7.531c-0.17,2.973-0.17,11.866,0,14.832
			c0.135,2.881,0.791,5.432,2.902,7.534c2.115,2.103,4.658,2.761,7.535,2.905c2.969,0.168,11.867,0.168,14.838,0
			c2.879-0.137,5.432-0.79,7.533-2.905c2.104-2.112,2.76-4.654,2.904-7.534c0.168-2.969,0.168-11.859,0-14.828 M32.004,28.572
			c-0.617,1.565-1.854,2.803-3.418,3.42c-2.367,0.939-7.984,0.721-10.6,0.721s-8.24,0.209-10.6-0.721
			c-1.564-0.617-2.803-1.854-3.418-3.42C3.029,26.213,3.25,20.596,3.25,17.979c0-2.616-0.211-8.241,0.719-10.598
			c0.617-1.564,1.855-2.803,3.418-3.42c2.365-0.938,7.988-0.721,10.6-0.721c2.613,0,8.24-0.209,10.6,0.721
			c1.564,0.617,2.801,1.855,3.418,3.42c0.939,2.365,0.723,7.982,0.723,10.6c0,2.617,0.217,8.241-0.723,10.6"/>
	</g>
</g>
</svg>
