<?xml version="1.0" encoding="utf-8"?>
<!-- Generator: Adobe Illustrator 15.1.0, SVG Export Plug-In . SVG Version: 6.00 Build 0)  -->
<!DOCTYPE svg PUBLIC "-//W3C//DTD SVG 1.1//EN" "http://www.w3.org/Graphics/SVG/1.1/DTD/svg11.dtd">
<svg version="1.1" id="Layer_1" xmlns="http://www.w3.org/2000/svg" xmlns:xlink="http://www.w3.org/1999/xlink" x="0px" y="0px"
	 width="33.75px" height="33.688px" viewBox="0 0 33.75 33.688" enable-background="new 0 0 33.75 33.688" xml:space="preserve">
<g id="Group_10_14_" transform="translate(0 0.222)">
	<g>
		<g id="Group_9_14_" transform="translate(0 -0.222)">
			<path id="Path_15_14_" fill="#96999C" d="M30.15,0.017H3.672c-1.996,0-3.612,1.615-3.612,3.611v26.479
				c0,1.995,1.616,3.611,3.612,3.611l0,0h10.324V22.261h-4.74v-5.393h4.74v-4.113c0-4.673,2.783-7.257,7.047-7.257
				c1.398,0.02,2.795,0.14,4.176,0.365v4.588h-2.352c-2.318,0-3.041,1.439-3.041,2.914v3.503H25l-0.828,5.393h-4.344v11.457H30.15
				c1.994,0,3.611-1.616,3.611-3.611l0,0V3.628C33.762,1.632,32.145,0.017,30.15,0.017L30.15,0.017"/>
		</g>
	</g>
</g>
</svg>
