<?xml version="1.0" encoding="UTF-8"?>
<!DOCTYPE svg PUBLIC "-//W3C//DTD SVG 1.1//EN" "http://www.w3.org/Graphics/SVG/1.1/DTD/svg11.dtd">
<svg version="1.2" width="16.92mm" height="13.3mm" viewBox="51750 65987 1692 1330" preserveAspectRatio="xMidYMid" fill-rule="evenodd" stroke-width="28.222" stroke-linejoin="round" xmlns="http://www.w3.org/2000/svg" xmlns:ooo="http://xml.openoffice.org/svg/export" xmlns:xlink="http://www.w3.org/1999/xlink" xmlns:presentation="http://sun.com/xmlns/staroffice/presentation" xmlns:smil="http://www.w3.org/2001/SMIL20/" xmlns:anim="urn:oasis:names:tc:opendocument:xmlns:animation:1.0" xmlns:svg="urn:oasis:names:tc:opendocument:xmlns:svg-compatible:1.0" xml:space="preserve">
 <defs class="EmbeddedBulletChars">
  <g id="bullet-char-template-57356" transform="scale(0.00048828125,-0.00048828125)">
   <path d="M 580,1141 L 1163,571 580,0 -4,571 580,1141 Z"/>
  </g>
  <g id="bullet-char-template-57354" transform="scale(0.00048828125,-0.00048828125)">
   <path d="M 8,1128 L 1137,1128 1137,0 8,0 8,1128 Z"/>
  </g>
  <g id="bullet-char-template-10146" transform="scale(0.00048828125,-0.00048828125)">
   <path d="M 174,0 L 602,739 174,1481 1456,739 174,0 Z M 1358,739 L 309,1346 659,739 1358,739 Z"/>
  </g>
  <g id="bullet-char-template-10132" transform="scale(0.00048828125,-0.00048828125)">
   <path d="M 2015,739 L 1276,0 717,0 1260,543 174,543 174,936 1260,936 717,1481 1274,1481 2015,739 Z"/>
  </g>
  <g id="bullet-char-template-10007" transform="scale(0.00048828125,-0.00048828125)">
   <path d="M 0,-2 C -7,14 -16,27 -25,37 L 356,567 C 262,823 215,952 215,954 215,979 228,992 255,992 264,992 276,990 289,987 310,991 331,999 354,1012 L 381,999 492,748 772,1049 836,1024 860,1049 C 881,1039 901,1025 922,1006 886,937 835,863 770,784 769,783 710,716 594,584 L 774,223 C 774,196 753,168 711,139 L 727,119 C 717,90 699,76 672,76 641,76 570,178 457,381 L 164,-76 C 142,-110 111,-127 72,-127 30,-127 9,-110 8,-76 1,-67 -2,-52 -2,-32 -2,-23 -1,-13 0,-2 Z"/>
  </g>
  <g id="bullet-char-template-10004" transform="scale(0.00048828125,-0.00048828125)">
   <path d="M 285,-33 C 182,-33 111,30 74,156 52,228 41,333 41,471 41,549 55,616 82,672 116,743 169,778 240,778 293,778 328,747 346,684 L 369,508 C 377,444 397,411 428,410 L 1163,1116 C 1174,1127 1196,1133 1229,1133 1271,1133 1292,1118 1292,1087 L 1292,965 C 1292,929 1282,901 1262,881 L 442,47 C 390,-6 338,-33 285,-33 Z"/>
  </g>
  <g id="bullet-char-template-9679" transform="scale(0.00048828125,-0.00048828125)">
   <path d="M 813,0 C 632,0 489,54 383,161 276,268 223,411 223,592 223,773 276,916 383,1023 489,1130 632,1184 813,1184 992,1184 1136,1130 1245,1023 1353,916 1407,772 1407,592 1407,412 1353,268 1245,161 1136,54 992,0 813,0 Z"/>
  </g>
  <g id="bullet-char-template-8226" transform="scale(0.00048828125,-0.00048828125)">
   <path d="M 346,457 C 273,457 209,483 155,535 101,586 74,649 74,723 74,796 101,859 155,911 209,963 273,989 346,989 419,989 480,963 531,910 582,859 608,796 608,723 608,648 583,586 532,535 482,483 420,457 346,457 Z"/>
  </g>
  <g id="bullet-char-template-8211" transform="scale(0.00048828125,-0.00048828125)">
   <path d="M -4,459 L 1135,459 1135,606 -4,606 -4,459 Z"/>
  </g>
  <g id="bullet-char-template-61548" transform="scale(0.00048828125,-0.00048828125)">
   <path d="M 173,740 C 173,903 231,1043 346,1159 462,1274 601,1332 765,1332 928,1332 1067,1274 1183,1159 1299,1043 1357,903 1357,740 1357,577 1299,437 1183,322 1067,206 928,148 765,148 601,148 462,206 346,322 231,437 173,577 173,740 Z"/>
  </g>
 </defs>
 <g class="Page">
  <g class="com.sun.star.drawing.ClosedBezierShape">
   <g id="id3">
    <rect class="BoundingBox" stroke="none" fill="none" x="52093" y="66927" width="1246" height="390"/>
    <path fill="rgb(186,186,186)" stroke="none" d="M 52698,67316 C 52494,67316 52289,67242 52121,67107 52089,67082 52084,67035 52109,67004 52124,66986 52145,66976 52167,66976 52184,66976 52200,66982 52213,66992 52264,67033 52451,67167 52703,67167 52890,67167 53062,67093 53214,66947 53242,66920 53291,66921 53318,66950 53332,66964 53339,66982 53338,67002 53338,67022 53330,67040 53316,67054 53137,67226 52924,67316 52698,67316 Z"/>
   </g>
  </g>
  <g class="com.sun.star.drawing.ClosedBezierShape">
   <g id="id4">
    <rect class="BoundingBox" stroke="none" fill="none" x="53226" y="65987" width="216" height="220"/>
    <path fill="rgb(186,186,186)" stroke="none" d="M 53333,66206 C 53304,66206 53279,66195 53258,66176 53237,66156 53226,66129 53226,66097 53226,66064 53237,66037 53258,66018 53279,65998 53304,65987 53333,65987 53363,65987 53389,65998 53409,66018 53430,66037 53441,66064 53441,66097 53441,66129 53430,66156 53409,66176 53389,66195 53363,66206 53333,66206 Z"/>
   </g>
  </g>
  <g class="com.sun.star.drawing.ClosedBezierShape">
   <g id="id5">
    <rect class="BoundingBox" stroke="none" fill="none" x="52673" y="66203" width="630" height="624"/>
    <path fill="rgb(115,115,115)" stroke="none" d="M 53177,66514 C 53177,66447 53160,66395 53126,66355 53092,66316 53046,66297 52988,66297 52928,66297 52882,66316 52848,66355 52814,66395 52798,66447 52798,66514 52798,66581 52814,66634 52848,66673 52882,66712 52928,66732 52988,66732 53046,66732 53092,66712 53126,66673 53160,66634 53177,66581 53177,66514 Z M 53302,66514 C 53302,66561 53294,66604 53279,66642 53263,66680 53241,66712 53214,66740 53186,66768 53152,66789 53114,66804 53075,66819 53033,66826 52988,66826 52941,66826 52899,66819 52861,66804 52822,66789 52789,66768 52761,66740 52733,66712 52711,66680 52696,66642 52681,66604 52673,66561 52673,66514 52673,66468 52681,66426 52696,66387 52711,66349 52733,66316 52761,66289 52789,66261 52822,66240 52861,66226 52899,66211 52941,66203 52988,66203 53033,66203 53075,66211 53114,66226 53152,66240 53186,66261 53214,66289 53241,66316 53263,66349 53279,66387 53294,66426 53302,66468 53302,66514 Z"/>
   </g>
  </g>
  <g class="com.sun.star.drawing.ClosedBezierShape">
   <g id="id6">
    <rect class="BoundingBox" stroke="none" fill="none" x="51750" y="66198" width="822" height="622"/>
    <path fill="rgb(115,115,115)" stroke="none" d="M 52221,66819 L 52100,66819 52100,66501 C 52100,66466 52099,66436 52095,66412 52091,66388 52085,66368 52076,66352 52066,66336 52054,66325 52039,66318 52017,66307 51986,66305 51947,66308 51935,66308 51923,66309 51912,66311 51902,66312 51892,66313 51883,66314 51878,66315 51874,66316 51871,66317 L 51871,66819 51750,66819 51750,66229 51756,66228 C 51780,66222 51812,66215 51852,66208 51892,66202 51939,66198 51992,66198 52031,66198 52064,66203 52091,66214 52116,66224 52137,66238 52155,66256 52160,66253 52166,66248 52175,66244 52186,66237 52201,66230 52218,66223 52235,66216 52254,66211 52275,66206 52296,66201 52319,66198 52343,66198 52389,66198 52428,66205 52457,66219 52487,66232 52511,66252 52528,66278 52545,66303 52557,66333 52562,66367 52568,66401 52571,66438 52571,66478 L 52571,66787 52450,66819 52450,66501 C 52450,66466 52448,66436 52445,66412 52442,66388 52435,66368 52427,66352 52418,66336 52406,66325 52391,66318 52376,66310 52356,66307 52331,66307 52297,66307 52268,66311 52246,66320 52227,66328 52213,66335 52204,66342 52210,66360 52214,66381 52217,66403 52220,66427 52221,66452 52221,66478 L 52221,66819 Z"/>
   </g>
  </g>
 </g>
</svg>